<svg version="1.1" id="a5c16198-98a1-478b-8909-43624583dcf2" x="0" y="0" xml:space="preserve" width="732.121" height="501.181" xmlns="http://www.w3.org/2000/svg">
  <style id="style2">
    .st1{fill:#2f2e41}.st3{fill:#fff}.st4{fill:#ffb8b8}.st5{fill:#536dfe}.st6{opacity:.5}.st7{fill:#e0e0e0}
  </style>
  <path class="st1" d="M59.921 94.468c27.5-13.1 57.203 10.19 90.703 15.99.3-7 8.597-19.997 4.597-35.39-4.8-5.9-4.4-12.2-1.5-18.4 7.4-16-3.2-33.1-13.9-47.3-4.9-6.5-12.2-9.9-19.8-9.3l-19.7 1.6c-9.9.8-18.3 8.4-21.1 19-4.7 7.2-7.3 14.4-5.7 21.6-7.1 5.4-8.3 12-5.1 19.4 2.7 4.7 2.7 9.2-.1 13.6-3.7 5.6-6.5 11.9-8.3 18.5zm653.4 344.2h-560.4c-10.4 0-18.8-8.4-18.8-18.8 203.2-23.6 402.5-23.6 598 0 0 10.3-8.4 18.8-18.8 18.8z" id="path6" fill="#4d4d4d"/>
  <path d="m732.121 421.82-598.34-1.102 69.34-116.849.3-.601V45.718c0-13.127 10.606-23.85 23.814-23.85h408.132c13.107 0 23.813 10.623 23.813 23.85v259.354z" fill="#b3b3b3" id="path8" stroke-width="1.001"/>
  <path class="st3" d="M226.221 39.168c-4.3 0-7.7 3.5-7.7 7.7v234.3c0 4.3 3.5 7.7 7.7 7.7h412.3c4.3 0 7.7-3.5 7.7-7.7v-234.3c0-4.3-3.5-7.7-7.7-7.7z" id="path10"/>
  <path class="st1" d="M228.721 319.268c-1.3 0-2.5.8-3 1.9l-21.4 46.4c-.8 1.7 0 3.6 1.6 4.4.4.2.9.3 1.4.3h449.1c1.8 0 3.3-1.5 3.3-3.3 0-.5-.1-1-.4-1.5l-23.2-46.4c-.6-1.1-1.7-1.8-3-1.8z" id="path12" fill="#4d4d4d"/>
  <path class="st1" d="M387.321 381.168c-1.5 0-2.8 1-3.2 2.5l-5.4 19.9c-.5 1.8.6 3.6 2.3 4.1.3.1.6.1.9.1h101.9c1.8 0 3.3-1.5 3.3-3.3 0-.4-.1-.7-.2-1.1l-6.9-19.9c-.5-1.3-1.7-2.2-3.1-2.2zm271.8-82.4v4.5h-455.7l.3-.6v-3.9z" id="path16" fill="#4d4c5e" fill-opacity="1"/>
  <path class="st4" d="m202.621 169.968-58.9 31.3-.7-26.1c19.2-3.2 37.5-8.8 54.4-17.9l6.2-15.2c2.1-5.3 8.2-7.8 13.4-5.7 1.6.6 3 1.7 4.1 3 3.4 4.2 3.1 10.3-.9 14.1z" id="path18"/>
  <path class="st1" d="M58.721 350.768c-.9-3.2-.3-6.6 1.5-9.4l12.9-19.9c6.3-9.7 19-13.1 29.3-7.7-5.4 9.3-4.7 17.4 1.9 24.4-10.2 5-19.6 11.4-27.9 19-5.3 3.6-12.5 2.2-16.1-3-.7-1-1.3-2.1-1.6-3.4z" id="path20"/>
  <path class="st1" d="M205.321 324.868c-4 6.6-11.1 10.7-18.9 10.8l-86 .7-3.7-21.6 38-11.2-32.1-24.6 35-41 63.6 59.3c7.9 7 9.5 18.6 4.1 27.6z" id="path22" fill="#47403d" fill-opacity="1"/>
  <path class="st1" d="M87.121 472.668h-20.1c-18.1-123.9-36.5-248.1 17.9-294.5l64.1 10.4-8.2 54.4-35.8 41z" id="path24" fill="#47403d" fill-opacity="1"/>
  <path class="st1" d="M104.721 500.768c-3.2.9-6.6.3-9.4-1.5l-21.9-2.9c-9.7-6.3-13.1-19-7.7-29.3 9.3 5.4 17.4 4.7 24.4-1.9 5 10.1 13.2 9.5 21 17.9 3.6 5.3 2.2 12.5-3 16.1-.9.7-2.1 1.3-3.4 1.6z" id="path26"/>
  <path class="st4" d="m134.821 95.468-37.3-8.9c6.2-12.7 6.7-26.8 3.7-41.8l25.4-.7c.8 18.5 3.2 35.9 8.2 51.4z" id="path28"/>
  <path class="st5" d="M145.021 211.068c-27.1 18.5-46.3.6-60.9-26.9 2-16.9-1.3-37-7.4-59-5.6-20 5-41.1 24.5-48.4l32.1 13.4c27.2 22.2 32.6 46.2 22.4 71.6z" id="path30" fill="#f55"/>
  <path class="st4" d="m66.921 114.068-29.8 15.7 52.9 31.3 7.4 18.2c2 4.9-.4 10.6-5.3 12.6-.2.1-.3.1-.5.2-5 1.7-10.5-.9-12.3-6-.3-.8-.5-1.7-.5-2.6l-.7-12.7-67.3-22.2c-4.6-1.5-8.2-5.1-9.9-9.6-2.4-6.7 0-14.3 5.9-18.3l54.1-37.1Z" id="path32"/>
  <path class="st5" d="M96.721 117.068c-12.4-5.5-23.7.5-38 5.2l-2.2-39.5c14.2-7.6 27.7-9.6 40.3-3.7z" id="path34" fill="#f55"/>
  <circle class="st4" cx="111.621" cy="39.768" r="23.8" id="circle36"/>
  <path class="st1" d="M140.121 36.768c-23.6 2.3-41.5-1.5-53-12.5v-8.8h51z" id="path38" fill="#4d4d4d"/>
  <g class="st6" id="g42" transform="matrix(1.00057 0 0 1.00214 -61.329 -38.46)">
    <path class="st5" d="M335.416 215.6h64.117c6.04 0 10.915 2.3 10.915 5.1v26.1c0 2.8-4.875 5.1-10.915 5.1h-64.117c-6.041 0-10.916-2.3-10.916-5.1v-26.1c0-2.9 4.875-5.1 10.916-5.1z" id="path40" stroke-width="1.029"/>
  </g>
  <path class="st7" d="M379.361 182.61H602.89c2.333 0 4.242.903 4.242 2.005 0 1.102-1.91 2.004-4.242 2.004H379.361c-2.333 0-4.241-.902-4.241-2.004 0-1.102 1.908-2.004 4.241-2.004zm0 12.126h184.295c2.333 0 4.241.902 4.241 2.005 0 1.102-1.908 2.004-4.241 2.004H379.36c-2.333 0-4.241-.902-4.241-2.004 0-1.103 1.908-2.005 4.241-2.005z" id="path44" stroke-width="1.031"/>
  <g class="st6" id="g48" transform="matrix(1.00057 0 0 1.00214 -61.329 -38.46)">
    <path class="st5" d="M335.416 272h64.117c6.04 0 10.915 2.3 10.915 5.1v26.1c0 2.8-4.875 5.1-10.915 5.1h-64.117c-6.041 0-10.916-2.3-10.916-5.1v-26.1c0-2.8 4.875-5.1 10.916-5.1z" id="path46" stroke-width="1.029"/>
  </g>
  <path class="st7" d="M379.361 239.131H602.89c2.333 0 4.242.902 4.242 2.004 0 1.103-1.91 2.005-4.242 2.005H379.361c-2.333 0-4.241-.902-4.241-2.005 0-1.102 1.908-2.004 4.241-2.004zm0 12.126H602.89c2.333 0 4.242.902 4.242 2.004 0 1.103-1.91 2.005-4.242 2.005H379.361c-2.333 0-4.241-.902-4.241-2.005 0-1.102 1.908-2.004 4.241-2.004z" id="path50" stroke-width="1.031"/>
  <g class="st6" id="g54" transform="matrix(1.00057 0 0 1.00214 -61.329 -38.46)" fill="#a9b6fe" fill-opacity="1">
    <path class="st5" d="M368.375 90.5h257.527c24.163 0 43.875 4.1 43.875 9.1v46.3c0 5-19.606 9.1-43.875 9.1H368.375c-24.163 0-43.875-4.1-43.875-9.1V99.6c0-5 19.606-9.1 43.875-9.1z" id="path52" fill="#a9b6fe" fill-opacity="1" stroke-width="1.029"/>
  </g>
  <path class="st7" d="M284.684 128.094h304.33c3.18 0 5.832 1.003 5.832 2.305 0 1.303-2.651 2.305-5.832 2.305h-304.33c-3.181 0-5.832-1.002-5.832-2.305 0-1.302 2.65-2.305 5.832-2.305zm-.636 12.327H589.65c2.863 0 5.196.801 5.196 1.703v.401c0 1.002-2.333 1.704-5.196 1.704H284.048c-2.863 0-5.196-.802-5.196-1.704v-.4c0-.903 2.333-1.704 5.196-1.704z" id="path56" stroke-width="1.031"/>
</svg>